<?xml version="1.0" encoding="UTF-8" standalone="no"?>
<!DOCTYPE svg PUBLIC "-//W3C//DTD SVG 1.1//EN"
 "http://www.w3.org/Graphics/SVG/1.1/DTD/svg11.dtd">
<!-- Generated by graphviz version 2.47.0 (20210316.0004)
 -->
<!-- Title: dbml Pages: 1 -->
<svg width="1715pt" height="1564pt"
 viewBox="0.00 0.00 1714.83 1564.33" xmlns="http://www.w3.org/2000/svg" xmlns:xlink="http://www.w3.org/1999/xlink">
<g id="graph0" class="graph" transform="scale(1 1) rotate(0) translate(4 1560.33)">
<title>dbml</title>
<!-- role_enum -->
<g id="role_enum" class="node">
<title>role_enum</title>
<ellipse fill="none" stroke="black" stroke-width="0" cx="1451.57" cy="-1004.09" rx="212.68" ry="130.22"/>
<polygon fill="#29235c" stroke="transparent" points="1303.57,-1034.09 1303.57,-1094.09 1600.57,-1094.09 1600.57,-1034.09 1303.57,-1034.09"/>
<polygon fill="none" stroke="#29235c" points="1303.57,-1034.09 1303.57,-1094.09 1600.57,-1094.09 1600.57,-1034.09 1303.57,-1034.09"/>
<text text-anchor="start" x="1314.25" y="-1055.29" font-family="Helvetica,sans-Serif" font-weight="bold" font-size="32.00" fill="#ffffff"> &#160;&#160;&#160;&#160;&#160;&#160;role_enum &#160;&#160;&#160;&#160;&#160;&#160;</text>
<polygon fill="#e7e2dd" stroke="transparent" points="1303.57,-974.09 1303.57,-1034.09 1600.57,-1034.09 1600.57,-974.09 1303.57,-974.09"/>
<polygon fill="none" stroke="#29235c" points="1303.57,-974.09 1303.57,-1034.09 1600.57,-1034.09 1600.57,-974.09 1303.57,-974.09"/>
<text text-anchor="start" x="1372.93" y="-995.29" font-family="Helvetica,sans-Serif" font-style="italic" font-size="32.00" fill="#1d71b8"> &#160;&#160;&#160;admin &#160;&#160;&#160;</text>
<polygon fill="#e7e2dd" stroke="transparent" points="1303.57,-914.09 1303.57,-974.09 1600.57,-974.09 1600.57,-914.09 1303.57,-914.09"/>
<polygon fill="none" stroke="#29235c" points="1303.57,-914.09 1303.57,-974.09 1600.57,-974.09 1600.57,-914.09 1303.57,-914.09"/>
<text text-anchor="start" x="1385.38" y="-935.29" font-family="Helvetica,sans-Serif" font-style="italic" font-size="32.00" fill="#1d71b8"> &#160;&#160;&#160;user &#160;&#160;&#160;</text>
<polygon fill="none" stroke="#29235c" stroke-width="2" points="1302.07,-913.09 1302.07,-1095.09 1601.07,-1095.09 1601.07,-913.09 1302.07,-913.09"/>
</g>
<!-- countries -->
<g id="countries" class="node">
<title>countries</title>
<ellipse fill="none" stroke="black" stroke-width="0" cx="1451.57" cy="-577.09" rx="255.03" ry="214.92"/>
<polygon fill="#1d71b8" stroke="transparent" points="1273.57,-667.09 1273.57,-727.09 1630.57,-727.09 1630.57,-667.09 1273.57,-667.09"/>
<polygon fill="none" stroke="#29235c" points="1273.57,-667.09 1273.57,-727.09 1630.57,-727.09 1630.57,-667.09 1273.57,-667.09"/>
<text text-anchor="start" x="1324.91" y="-688.29" font-family="Helvetica,sans-Serif" font-weight="bold" font-size="32.00" fill="#ffffff"> &#160;&#160;&#160;&#160;&#160;&#160;countries &#160;&#160;&#160;&#160;&#160;&#160;</text>
<polygon fill="#e7e2dd" stroke="transparent" points="1273.57,-607.09 1273.57,-667.09 1630.57,-667.09 1630.57,-607.09 1273.57,-607.09"/>
<polygon fill="none" stroke="#29235c" points="1273.57,-607.09 1273.57,-667.09 1630.57,-667.09 1630.57,-607.09 1273.57,-607.09"/>
<text text-anchor="start" x="1284.57" y="-628.29" font-family="Helvetica,sans-Serif" font-weight="bold" font-size="32.00" fill="#29235c">id</text>
<text text-anchor="start" x="1309.45" y="-628.29" font-family="Helvetica,sans-Serif" font-size="32.00" fill="#29235c"> &#160;&#160;&#160;</text>
<text text-anchor="start" x="1585.78" y="-628.29" font-family="Helvetica,sans-Serif" font-style="italic" font-size="32.00" fill="#29235c">int</text>
<polygon fill="#e7e2dd" stroke="transparent" points="1273.57,-547.09 1273.57,-607.09 1630.57,-607.09 1630.57,-547.09 1273.57,-547.09"/>
<polygon fill="none" stroke="#29235c" points="1273.57,-547.09 1273.57,-607.09 1630.57,-607.09 1630.57,-547.09 1273.57,-547.09"/>
<text text-anchor="start" x="1284.27" y="-567.29" font-family="Helvetica,sans-Serif" font-size="32.00" fill="#29235c">name &#160;&#160;&#160;</text>
<text text-anchor="start" x="1399.35" y="-568.29" font-family="Helvetica,sans-Serif" font-style="italic" font-size="32.00" fill="#29235c">varchar(255)</text>
<text text-anchor="start" x="1580.69" y="-568.29" font-family="Helvetica,sans-Serif" font-size="32.00" fill="#29235c"> </text>
<text text-anchor="start" x="1589.58" y="-568.29" font-family="Helvetica,sans-Serif" font-weight="bold" font-size="32.00" fill="#29235c">(!)</text>
<polygon fill="#e7e2dd" stroke="transparent" points="1273.57,-487.09 1273.57,-547.09 1630.57,-547.09 1630.57,-487.09 1273.57,-487.09"/>
<polygon fill="none" stroke="#29235c" points="1273.57,-487.09 1273.57,-547.09 1630.57,-547.09 1630.57,-487.09 1273.57,-487.09"/>
<text text-anchor="start" x="1284.57" y="-507.29" font-family="Helvetica,sans-Serif" font-size="32.00" fill="#29235c">code &#160;&#160;&#160;</text>
<text text-anchor="start" x="1434.71" y="-508.29" font-family="Helvetica,sans-Serif" font-style="italic" font-size="32.00" fill="#29235c">varchar(2)</text>
<text text-anchor="start" x="1580.47" y="-508.29" font-family="Helvetica,sans-Serif" font-size="32.00" fill="#29235c"> </text>
<text text-anchor="start" x="1589.37" y="-508.29" font-family="Helvetica,sans-Serif" font-weight="bold" font-size="32.00" fill="#29235c">(!)</text>
<polygon fill="#e7e2dd" stroke="transparent" points="1273.57,-427.09 1273.57,-487.09 1630.57,-487.09 1630.57,-427.09 1273.57,-427.09"/>
<polygon fill="none" stroke="#29235c" points="1273.57,-427.09 1273.57,-487.09 1630.57,-487.09 1630.57,-427.09 1273.57,-427.09"/>
<text text-anchor="start" x="1284.57" y="-447.29" font-family="Helvetica,sans-Serif" font-size="32.00" fill="#29235c">created_at &#160;&#160;&#160;</text>
<text text-anchor="start" x="1472.01" y="-448.29" font-family="Helvetica,sans-Serif" font-style="italic" font-size="32.00" fill="#29235c">timestamp</text>
<polygon fill="none" stroke="#29235c" stroke-width="2" points="1272.07,-426.09 1272.07,-728.09 1631.07,-728.09 1631.07,-426.09 1272.07,-426.09"/>
</g>
<!-- users -->
<g id="users" class="node">
<title>users</title>
<ellipse fill="none" stroke="black" stroke-width="0" cx="852" cy="-1214.09" rx="304.11" ry="342.48"/>
<polygon fill="#1d71b8" stroke="transparent" points="639,-1394.09 639,-1454.09 1065,-1454.09 1065,-1394.09 639,-1394.09"/>
<polygon fill="none" stroke="#29235c" points="639,-1394.09 639,-1454.09 1065,-1454.09 1065,-1394.09 639,-1394.09"/>
<text text-anchor="start" x="750.64" y="-1415.29" font-family="Helvetica,sans-Serif" font-weight="bold" font-size="32.00" fill="#ffffff"> &#160;&#160;&#160;&#160;&#160;&#160;users &#160;&#160;&#160;&#160;&#160;&#160;</text>
<polygon fill="#e7e2dd" stroke="transparent" points="639,-1334.09 639,-1394.09 1065,-1394.09 1065,-1334.09 639,-1334.09"/>
<polygon fill="none" stroke="#29235c" points="639,-1334.09 639,-1394.09 1065,-1394.09 1065,-1334.09 639,-1334.09"/>
<text text-anchor="start" x="650" y="-1355.29" font-family="Helvetica,sans-Serif" font-weight="bold" font-size="32.00" fill="#29235c">id</text>
<text text-anchor="start" x="674.89" y="-1355.29" font-family="Helvetica,sans-Serif" font-size="32.00" fill="#29235c"> &#160;&#160;&#160;</text>
<text text-anchor="start" x="1020.22" y="-1355.29" font-family="Helvetica,sans-Serif" font-style="italic" font-size="32.00" fill="#29235c">int</text>
<polygon fill="#e7e2dd" stroke="transparent" points="639,-1274.09 639,-1334.09 1065,-1334.09 1065,-1274.09 639,-1274.09"/>
<polygon fill="none" stroke="#29235c" points="639,-1274.09 639,-1334.09 1065,-1334.09 1065,-1274.09 639,-1274.09"/>
<text text-anchor="start" x="649.54" y="-1294.29" font-family="Helvetica,sans-Serif" font-size="32.00" fill="#29235c">first_name &#160;&#160;&#160;</text>
<text text-anchor="start" x="833.78" y="-1295.29" font-family="Helvetica,sans-Serif" font-style="italic" font-size="32.00" fill="#29235c">varchar(255)</text>
<text text-anchor="start" x="1015.13" y="-1295.29" font-family="Helvetica,sans-Serif" font-size="32.00" fill="#29235c"> </text>
<text text-anchor="start" x="1024.02" y="-1295.29" font-family="Helvetica,sans-Serif" font-weight="bold" font-size="32.00" fill="#29235c">(!)</text>
<polygon fill="#e7e2dd" stroke="transparent" points="639,-1214.09 639,-1274.09 1065,-1274.09 1065,-1214.09 639,-1214.09"/>
<polygon fill="none" stroke="#29235c" points="639,-1214.09 639,-1274.09 1065,-1274.09 1065,-1214.09 639,-1214.09"/>
<text text-anchor="start" x="650" y="-1234.29" font-family="Helvetica,sans-Serif" font-size="32.00" fill="#29235c">last_name &#160;&#160;&#160;</text>
<text text-anchor="start" x="833.78" y="-1235.29" font-family="Helvetica,sans-Serif" font-style="italic" font-size="32.00" fill="#29235c">varchar(255)</text>
<text text-anchor="start" x="1015.13" y="-1235.29" font-family="Helvetica,sans-Serif" font-size="32.00" fill="#29235c"> </text>
<text text-anchor="start" x="1024.02" y="-1235.29" font-family="Helvetica,sans-Serif" font-weight="bold" font-size="32.00" fill="#29235c">(!)</text>
<polygon fill="#e7e2dd" stroke="transparent" points="639,-1154.09 639,-1214.09 1065,-1214.09 1065,-1154.09 639,-1154.09"/>
<polygon fill="none" stroke="#29235c" points="639,-1154.09 639,-1214.09 1065,-1214.09 1065,-1154.09 639,-1154.09"/>
<text text-anchor="start" x="650" y="-1174.29" font-family="Helvetica,sans-Serif" font-size="32.00" fill="#29235c">email &#160;&#160;&#160;</text>
<text text-anchor="start" x="833.57" y="-1175.29" font-family="Helvetica,sans-Serif" font-style="italic" font-size="32.00" fill="#29235c">varchar(255)</text>
<text text-anchor="start" x="1014.91" y="-1175.29" font-family="Helvetica,sans-Serif" font-size="32.00" fill="#29235c"> </text>
<text text-anchor="start" x="1023.8" y="-1175.29" font-family="Helvetica,sans-Serif" font-weight="bold" font-size="32.00" fill="#29235c">(!)</text>
<polygon fill="#e7e2dd" stroke="transparent" points="639,-1094.09 639,-1154.09 1065,-1154.09 1065,-1094.09 639,-1094.09"/>
<polygon fill="none" stroke="#29235c" points="639,-1094.09 639,-1154.09 1065,-1154.09 1065,-1094.09 639,-1094.09"/>
<text text-anchor="start" x="650" y="-1114.29" font-family="Helvetica,sans-Serif" font-size="32.00" fill="#29235c">password &#160;&#160;&#160;</text>
<text text-anchor="start" x="833.57" y="-1115.29" font-family="Helvetica,sans-Serif" font-style="italic" font-size="32.00" fill="#29235c">varchar(255)</text>
<text text-anchor="start" x="1014.91" y="-1115.29" font-family="Helvetica,sans-Serif" font-size="32.00" fill="#29235c"> </text>
<text text-anchor="start" x="1023.8" y="-1115.29" font-family="Helvetica,sans-Serif" font-weight="bold" font-size="32.00" fill="#29235c">(!)</text>
<polygon fill="#e7e2dd" stroke="transparent" points="639,-1034.09 639,-1094.09 1065,-1094.09 1065,-1034.09 639,-1034.09"/>
<polygon fill="none" stroke="#29235c" points="639,-1034.09 639,-1094.09 1065,-1094.09 1065,-1034.09 639,-1034.09"/>
<text text-anchor="start" x="650" y="-1054.29" font-family="Helvetica,sans-Serif" font-size="32.00" fill="#29235c">role_id &#160;&#160;&#160;</text>
<text text-anchor="start" x="863.77" y="-1055.29" font-family="Helvetica,sans-Serif" font-style="italic" font-size="32.00" fill="#29235c">role_enum</text>
<text text-anchor="start" x="1014.91" y="-1055.29" font-family="Helvetica,sans-Serif" font-size="32.00" fill="#29235c"> </text>
<text text-anchor="start" x="1023.8" y="-1055.29" font-family="Helvetica,sans-Serif" font-weight="bold" font-size="32.00" fill="#29235c">(!)</text>
<polygon fill="#e7e2dd" stroke="transparent" points="639,-974.09 639,-1034.09 1065,-1034.09 1065,-974.09 639,-974.09"/>
<polygon fill="none" stroke="#29235c" points="639,-974.09 639,-1034.09 1065,-1034.09 1065,-974.09 639,-974.09"/>
<text text-anchor="start" x="650" y="-994.29" font-family="Helvetica,sans-Serif" font-size="32.00" fill="#29235c">created_at &#160;&#160;&#160;</text>
<text text-anchor="start" x="906.44" y="-995.29" font-family="Helvetica,sans-Serif" font-style="italic" font-size="32.00" fill="#29235c">timestamp</text>
<polygon fill="none" stroke="#29235c" stroke-width="2" points="638,-973.09 638,-1455.09 1066,-1455.09 1066,-973.09 638,-973.09"/>
</g>
<!-- users&#45;&gt;role_enum -->
<g id="edge7" class="edge">
<title>users:e&#45;&gt;role_enum:w</title>
<path fill="none" stroke="#29235c" stroke-width="3" d="M1066,-1064.09C1171.14,-1064.09 1197.43,-1064.09 1302.57,-1064.09"/>
</g>
<!-- vacations -->
<g id="vacations" class="node">
<title>vacations</title>
<ellipse fill="none" stroke="black" stroke-width="0" cx="852" cy="-427.09" rx="308.1" ry="427.19"/>
<polygon fill="#1d71b8" stroke="transparent" points="636,-667.09 636,-727.09 1068,-727.09 1068,-667.09 636,-667.09"/>
<polygon fill="none" stroke="#29235c" points="636,-667.09 636,-727.09 1068,-727.09 1068,-667.09 636,-667.09"/>
<text text-anchor="start" x="722.18" y="-688.29" font-family="Helvetica,sans-Serif" font-weight="bold" font-size="32.00" fill="#ffffff"> &#160;&#160;&#160;&#160;&#160;&#160;vacations &#160;&#160;&#160;&#160;&#160;&#160;</text>
<polygon fill="#e7e2dd" stroke="transparent" points="636,-607.09 636,-667.09 1068,-667.09 1068,-607.09 636,-607.09"/>
<polygon fill="none" stroke="#29235c" points="636,-607.09 636,-667.09 1068,-667.09 1068,-607.09 636,-607.09"/>
<text text-anchor="start" x="647" y="-628.29" font-family="Helvetica,sans-Serif" font-weight="bold" font-size="32.00" fill="#29235c">id</text>
<text text-anchor="start" x="671.89" y="-628.29" font-family="Helvetica,sans-Serif" font-size="32.00" fill="#29235c"> &#160;&#160;&#160;</text>
<text text-anchor="start" x="1023.22" y="-628.29" font-family="Helvetica,sans-Serif" font-style="italic" font-size="32.00" fill="#29235c">int</text>
<polygon fill="#e7e2dd" stroke="transparent" points="636,-547.09 636,-607.09 1068,-607.09 1068,-547.09 636,-547.09"/>
<polygon fill="none" stroke="#29235c" points="636,-547.09 636,-607.09 1068,-607.09 1068,-547.09 636,-547.09"/>
<text text-anchor="start" x="647" y="-567.29" font-family="Helvetica,sans-Serif" font-size="32.00" fill="#29235c">country_id &#160;&#160;&#160;</text>
<text text-anchor="start" x="984.13" y="-568.29" font-family="Helvetica,sans-Serif" font-style="italic" font-size="32.00" fill="#29235c">int</text>
<text text-anchor="start" x="1017.91" y="-568.29" font-family="Helvetica,sans-Serif" font-size="32.00" fill="#29235c"> </text>
<text text-anchor="start" x="1026.8" y="-568.29" font-family="Helvetica,sans-Serif" font-weight="bold" font-size="32.00" fill="#29235c">(!)</text>
<polygon fill="#e7e2dd" stroke="transparent" points="636,-487.09 636,-547.09 1068,-547.09 1068,-487.09 636,-487.09"/>
<polygon fill="none" stroke="#29235c" points="636,-487.09 636,-547.09 1068,-547.09 1068,-487.09 636,-487.09"/>
<text text-anchor="start" x="646.86" y="-507.29" font-family="Helvetica,sans-Serif" font-size="32.00" fill="#29235c">destination &#160;&#160;&#160;</text>
<text text-anchor="start" x="836.78" y="-508.29" font-family="Helvetica,sans-Serif" font-style="italic" font-size="32.00" fill="#29235c">varchar(255)</text>
<text text-anchor="start" x="1018.13" y="-508.29" font-family="Helvetica,sans-Serif" font-size="32.00" fill="#29235c"> </text>
<text text-anchor="start" x="1027.02" y="-508.29" font-family="Helvetica,sans-Serif" font-weight="bold" font-size="32.00" fill="#29235c">(!)</text>
<polygon fill="#e7e2dd" stroke="transparent" points="636,-427.09 636,-487.09 1068,-487.09 1068,-427.09 636,-427.09"/>
<polygon fill="none" stroke="#29235c" points="636,-427.09 636,-487.09 1068,-487.09 1068,-427.09 636,-427.09"/>
<text text-anchor="start" x="647" y="-447.29" font-family="Helvetica,sans-Serif" font-size="32.00" fill="#29235c">description &#160;&#160;&#160;</text>
<text text-anchor="start" x="1005.43" y="-448.29" font-family="Helvetica,sans-Serif" font-style="italic" font-size="32.00" fill="#29235c">text</text>
<polygon fill="#e7e2dd" stroke="transparent" points="636,-367.09 636,-427.09 1068,-427.09 1068,-367.09 636,-367.09"/>
<polygon fill="none" stroke="#29235c" points="636,-367.09 636,-427.09 1068,-427.09 1068,-367.09 636,-367.09"/>
<text text-anchor="start" x="647" y="-387.29" font-family="Helvetica,sans-Serif" font-size="32.00" fill="#29235c">start_date &#160;&#160;&#160;</text>
<text text-anchor="start" x="955.65" y="-388.29" font-family="Helvetica,sans-Serif" font-style="italic" font-size="32.00" fill="#29235c">date</text>
<text text-anchor="start" x="1017.91" y="-388.29" font-family="Helvetica,sans-Serif" font-size="32.00" fill="#29235c"> </text>
<text text-anchor="start" x="1026.8" y="-388.29" font-family="Helvetica,sans-Serif" font-weight="bold" font-size="32.00" fill="#29235c">(!)</text>
<polygon fill="#e7e2dd" stroke="transparent" points="636,-307.09 636,-367.09 1068,-367.09 1068,-307.09 636,-307.09"/>
<polygon fill="none" stroke="#29235c" points="636,-307.09 636,-367.09 1068,-367.09 1068,-307.09 636,-307.09"/>
<text text-anchor="start" x="647" y="-327.29" font-family="Helvetica,sans-Serif" font-size="32.00" fill="#29235c">end_date &#160;&#160;&#160;</text>
<text text-anchor="start" x="955.65" y="-328.29" font-family="Helvetica,sans-Serif" font-style="italic" font-size="32.00" fill="#29235c">date</text>
<text text-anchor="start" x="1017.91" y="-328.29" font-family="Helvetica,sans-Serif" font-size="32.00" fill="#29235c"> </text>
<text text-anchor="start" x="1026.8" y="-328.29" font-family="Helvetica,sans-Serif" font-weight="bold" font-size="32.00" fill="#29235c">(!)</text>
<polygon fill="#e7e2dd" stroke="transparent" points="636,-247.09 636,-307.09 1068,-307.09 1068,-247.09 636,-247.09"/>
<polygon fill="none" stroke="#29235c" points="636,-247.09 636,-307.09 1068,-307.09 1068,-247.09 636,-247.09"/>
<text text-anchor="start" x="647" y="-267.29" font-family="Helvetica,sans-Serif" font-size="32.00" fill="#29235c">price &#160;&#160;&#160;</text>
<text text-anchor="start" x="824.12" y="-268.29" font-family="Helvetica,sans-Serif" font-style="italic" font-size="32.00" fill="#29235c">decimal(10,2)</text>
<text text-anchor="start" x="1017.91" y="-268.29" font-family="Helvetica,sans-Serif" font-size="32.00" fill="#29235c"> </text>
<text text-anchor="start" x="1026.8" y="-268.29" font-family="Helvetica,sans-Serif" font-weight="bold" font-size="32.00" fill="#29235c">(!)</text>
<polygon fill="#e7e2dd" stroke="transparent" points="636,-187.09 636,-247.09 1068,-247.09 1068,-187.09 636,-187.09"/>
<polygon fill="none" stroke="#29235c" points="636,-187.09 636,-247.09 1068,-247.09 1068,-187.09 636,-187.09"/>
<text text-anchor="start" x="647" y="-207.29" font-family="Helvetica,sans-Serif" font-size="32.00" fill="#29235c">image_url &#160;&#160;&#160;</text>
<text text-anchor="start" x="875.66" y="-208.29" font-family="Helvetica,sans-Serif" font-style="italic" font-size="32.00" fill="#29235c">varchar(500)</text>
<polygon fill="#e7e2dd" stroke="transparent" points="636,-127.09 636,-187.09 1068,-187.09 1068,-127.09 636,-127.09"/>
<polygon fill="none" stroke="#29235c" points="636,-127.09 636,-187.09 1068,-187.09 1068,-127.09 636,-127.09"/>
<text text-anchor="start" x="647" y="-147.29" font-family="Helvetica,sans-Serif" font-size="32.00" fill="#29235c">created_at &#160;&#160;&#160;</text>
<text text-anchor="start" x="909.44" y="-148.29" font-family="Helvetica,sans-Serif" font-style="italic" font-size="32.00" fill="#29235c">timestamp</text>
<polygon fill="none" stroke="#29235c" stroke-width="2" points="635,-126.09 635,-728.09 1069,-728.09 1069,-126.09 635,-126.09"/>
</g>
<!-- vacations&#45;&gt;countries -->
<!-- vacations&#45;&gt;countries -->
<g id="edge2" class="edge">
<title>vacations:e&#45;&gt;countries:w</title>
<path fill="none" stroke="#29235c" stroke-width="3" d="M1069,-577.09C1159.82,-577.09 1177.03,-632.72 1262.38,-636.85"/>
<polygon fill="#29235c" stroke="#29235c" stroke-width="3" points="1262.49,-640.35 1272.57,-637.09 1262.65,-633.36 1262.49,-640.35"/>
<text text-anchor="middle" x="1263.67" y="-646.69" font-family="Helvetica,sans-Serif" font-size="32.00" fill="#29235c">1</text>
<text text-anchor="middle" x="1075.22" y="-577.09" font-family="Helvetica,sans-Serif" font-size="32.00" fill="#29235c">*</text>
</g>
<!-- likes -->
<g id="likes" class="node">
<title>likes</title>
<ellipse fill="none" stroke="black" stroke-width="0" cx="253.85" cy="-1000.09" rx="253.7" ry="214.92"/>
<polygon fill="#1d71b8" stroke="transparent" points="76.85,-1090.09 76.85,-1150.09 431.85,-1150.09 431.85,-1090.09 76.85,-1090.09"/>
<polygon fill="none" stroke="#29235c" points="76.85,-1090.09 76.85,-1150.09 431.85,-1150.09 431.85,-1090.09 76.85,-1090.09"/>
<text text-anchor="start" x="160.11" y="-1111.29" font-family="Helvetica,sans-Serif" font-weight="bold" font-size="32.00" fill="#ffffff"> &#160;&#160;&#160;&#160;&#160;&#160;likes &#160;&#160;&#160;&#160;&#160;&#160;</text>
<polygon fill="#e7e2dd" stroke="transparent" points="76.85,-1030.09 76.85,-1090.09 431.85,-1090.09 431.85,-1030.09 76.85,-1030.09"/>
<polygon fill="none" stroke="#29235c" points="76.85,-1030.09 76.85,-1090.09 431.85,-1090.09 431.85,-1030.09 76.85,-1030.09"/>
<text text-anchor="start" x="87.85" y="-1051.29" font-family="Helvetica,sans-Serif" font-weight="bold" font-size="32.00" fill="#29235c">id</text>
<text text-anchor="start" x="112.74" y="-1051.29" font-family="Helvetica,sans-Serif" font-size="32.00" fill="#29235c"> &#160;&#160;&#160;</text>
<text text-anchor="start" x="387.07" y="-1051.29" font-family="Helvetica,sans-Serif" font-style="italic" font-size="32.00" fill="#29235c">int</text>
<polygon fill="#e7e2dd" stroke="transparent" points="76.85,-970.09 76.85,-1030.09 431.85,-1030.09 431.85,-970.09 76.85,-970.09"/>
<polygon fill="none" stroke="#29235c" points="76.85,-970.09 76.85,-1030.09 431.85,-1030.09 431.85,-970.09 76.85,-970.09"/>
<text text-anchor="start" x="87.85" y="-990.29" font-family="Helvetica,sans-Serif" font-size="32.00" fill="#29235c">user_id &#160;&#160;&#160;</text>
<text text-anchor="start" x="347.98" y="-991.29" font-family="Helvetica,sans-Serif" font-style="italic" font-size="32.00" fill="#29235c">int</text>
<text text-anchor="start" x="381.76" y="-991.29" font-family="Helvetica,sans-Serif" font-size="32.00" fill="#29235c"> </text>
<text text-anchor="start" x="390.65" y="-991.29" font-family="Helvetica,sans-Serif" font-weight="bold" font-size="32.00" fill="#29235c">(!)</text>
<polygon fill="#e7e2dd" stroke="transparent" points="76.85,-910.09 76.85,-970.09 431.85,-970.09 431.85,-910.09 76.85,-910.09"/>
<polygon fill="none" stroke="#29235c" points="76.85,-910.09 76.85,-970.09 431.85,-970.09 431.85,-910.09 76.85,-910.09"/>
<text text-anchor="start" x="87.85" y="-930.29" font-family="Helvetica,sans-Serif" font-size="32.00" fill="#29235c">vacation_id &#160;&#160;&#160;</text>
<text text-anchor="start" x="347.98" y="-931.29" font-family="Helvetica,sans-Serif" font-style="italic" font-size="32.00" fill="#29235c">int</text>
<text text-anchor="start" x="381.76" y="-931.29" font-family="Helvetica,sans-Serif" font-size="32.00" fill="#29235c"> </text>
<text text-anchor="start" x="390.65" y="-931.29" font-family="Helvetica,sans-Serif" font-weight="bold" font-size="32.00" fill="#29235c">(!)</text>
<polygon fill="#e7e2dd" stroke="transparent" points="76.85,-850.09 76.85,-910.09 431.85,-910.09 431.85,-850.09 76.85,-850.09"/>
<polygon fill="none" stroke="#29235c" points="76.85,-850.09 76.85,-910.09 431.85,-910.09 431.85,-850.09 76.85,-850.09"/>
<text text-anchor="start" x="87.48" y="-870.29" font-family="Helvetica,sans-Serif" font-size="32.00" fill="#29235c">created_at &#160;&#160;&#160;</text>
<text text-anchor="start" x="273.57" y="-871.29" font-family="Helvetica,sans-Serif" font-style="italic" font-size="32.00" fill="#29235c">timestamp</text>
<polygon fill="none" stroke="#29235c" stroke-width="2" points="75.35,-849.09 75.35,-1151.09 432.35,-1151.09 432.35,-849.09 75.35,-849.09"/>
</g>
<!-- likes&#45;&gt;users -->
<!-- likes&#45;&gt;users -->
<g id="edge4" class="edge">
<title>likes:e&#45;&gt;users:w</title>
<path fill="none" stroke="#29235c" stroke-width="3" d="M432.85,-1000.09C615.02,-1000.09 458.5,-1350.36 627.77,-1363.7"/>
<polygon fill="#29235c" stroke="#29235c" stroke-width="3" points="627.87,-1367.21 638,-1364.09 628.14,-1360.21 627.87,-1367.21"/>
<text text-anchor="middle" x="646.9" y="-1373.69" font-family="Helvetica,sans-Serif" font-size="32.00" fill="#29235c">1</text>
<text text-anchor="middle" x="439.07" y="-1009.69" font-family="Helvetica,sans-Serif" font-size="32.00" fill="#29235c">*</text>
</g>
<!-- likes&#45;&gt;vacations -->
<!-- likes&#45;&gt;vacations -->
<g id="edge6" class="edge">
<title>likes:e&#45;&gt;vacations:w</title>
<path fill="none" stroke="#29235c" stroke-width="3" d="M432.85,-940.09C591.26,-940.09 478.21,-649.97 624.95,-637.51"/>
<polygon fill="#29235c" stroke="#29235c" stroke-width="3" points="625.15,-641 635,-637.09 624.87,-634.01 625.15,-641"/>
<text text-anchor="middle" x="643.9" y="-646.69" font-family="Helvetica,sans-Serif" font-size="32.00" fill="#29235c">1</text>
<text text-anchor="middle" x="439.07" y="-949.69" font-family="Helvetica,sans-Serif" font-size="32.00" fill="#29235c">*</text>
</g>
</g>
</svg>
